<svg width="271" height="68.81" xmlns="http://www.w3.org/2000/svg">
 <style type="text/css">.st0{fill:#4E4D4D;}
	.st1{fill:#020203;}</style>

 <g>
  <title>background</title>
  <rect fill="none" id="canvas_background" height="70.81" width="273" y="-1" x="-1"/>
 </g>
 <g>
  <title>Layer 1</title>
  <g id="svg_44">
   <path id="svg_45" d="m109.9,17.2l-13.09,0c-1.1,0 -2.18,0.36 -3.06,1.02l-3.18,2.06c-1.78,1.15 -2.85,3.13 -2.85,5.25l0,29.47l8.22,0l0,-27.1c0,-1.82 1.48,-3.3 3.3,-3.3l10.67,0l0,-7.4l-0.01,0z" class="st1"/>
   <path id="svg_46" d="m115.65,17.2l8.22,0l0,22.71c0,0.51 -0.24,0.75 0,0.3l12.55,-21.89c0.37,-0.69 1.09,-1.12 1.87,-1.12l3.18,0c1.62,0 2.94,1.32 2.94,2.94l0,34.86l-8.22,0l0,-21.41c0,-0.62 0.28,-0.51 0,0.04l-11.38,19.53c-0.58,1.13 -1.75,1.84 -3.02,1.84l-2.67,0c-1.92,0 -3.48,-1.56 -3.48,-3.48l0,-34.32l0.01,0z" class="st1"/>
   <path id="svg_47" d="m152.63,17.2l8.22,0l0,14.79l2.39,0c0.56,0 1.09,-0.28 1.4,-0.75l0,0c2.91,-4.36 4.7,-8.55 5.23,-13.77l0.03,-0.27l8.22,0l-0.22,1.23c-0.93,5.13 -1.51,9.45 -4.71,13.56l-1.64,1.64l4.11,3.29c1.64,1.64 2.19,2.93 2.39,5.1c0.08,0.88 0.08,1.69 0.08,2.29l0,10.69l-8.22,0l0,-13.17c0,-1.02 -0.51,-1.96 -1.35,-2.53l-0.23,-0.15c-0.58,-0.38 -1.25,-0.59 -1.95,-0.59l-5.51,0l0,16.44l-8.22,0l0,-37.8l-0.02,0z" class="st1"/>
   <path id="svg_48" d="m203.16,17.2c-10.66,0 -19.31,8.65 -19.31,19.31s8.65,19.31 19.31,19.31c10.66,0 19.31,-8.65 19.31,-19.31s-8.64,-19.31 -19.31,-19.31zm-0.31,31.03c-6.75,0 -11.41,-4.65 -11.41,-11.41s4.65,-11.41 11.41,-11.41c6.75,0 11.41,4.65 11.41,11.41s-4.66,11.41 -11.41,11.41z" class="st1"/>
   <path id="svg_49" d="m226.17,55l9.04,0l2.47,-26.3l6.98,23.01c0.82,4.93 5.75,4.93 6.57,0l6.54,-23.03l2.91,26.32l9.04,0l-5.34,-33.69c-2.47,-6.57 -9.04,-6.57 -11.09,0l-5.34,18.08l-5.34,-17.26c-2.47,-7.4 -9.86,-7.4 -11.5,0l-4.94,32.87z" class="st1"/>
  </g>
  <g id="svg_50">
   <rect id="svg_51" height="5.54" width="33.11" class="st1" y="31.49" x="34.67"/>
   <path id="svg_52" d="m62.46,31.57c0.09,0.93 0.14,1.88 0.14,2.84c0,15.57 -12.62,28.19 -28.19,28.19s-28.2,-12.62 -28.2,-28.2s12.62,-28.19 28.2,-28.19c13.35,0 24.53,9.28 27.45,21.73l6.35,0c-3.03,-15.91 -17.01,-27.94 -33.8,-27.94c-19.01,0 -34.41,15.4 -34.41,34.4s15.4,34.41 34.41,34.41s34.4,-15.4 34.4,-34.41c0,-0.96 -0.04,-1.9 -0.12,-2.84l-6.23,0l0,0.01z" class="st1"/>
   <path id="svg_53" d="m49.37,40.86c-2.5,5.79 -8.26,9.83 -14.96,9.83c-9,0 -16.29,-7.29 -16.29,-16.29s7.29,-16.29 16.29,-16.29c6.67,0 12.4,4.01 14.93,9.75l6.08,0c-2.79,-8.95 -11.14,-15.45 -21.01,-15.45c-12.15,0 -22,9.85 -22,22s9.85,22 22,22c9.9,0 18.27,-6.54 21.03,-15.54l-6.07,0l0,-0.01z" class="st1"/>
  </g>
 </g>
</svg>