<?xml version="1.0" encoding="utf-8"?>
<!-- Generator: Adobe Illustrator 24.1.2, SVG Export Plug-In . SVG Version: 6.00 Build 0)  -->
<svg version="1.1" id="Слой_1" xmlns="http://www.w3.org/2000/svg" xmlns:xlink="http://www.w3.org/1999/xlink" x="0px" y="0px"
	 viewBox="0 0 568.19 68.81" style="enable-background:new 0 0 568.19 68.81;" xml:space="preserve">
<style type="text/css">
	.st0{fill:#FFFFFF;}
</style>
<g>
	<path class="st0" d="M292.8,29.23V13.61h8.87v1.36h-7.33v14.26H292.8z"/>
	<path class="st0" d="M303.82,29.23v-11.4h1.5v9.38l6.97-9.4h1.34v11.42h-1.5v-9.23l-6.86,9.23H303.82z"/>
	<path class="st0" d="M322.76,29.45c-0.95,0-1.81-0.25-2.56-0.74c-0.76-0.5-1.35-1.11-1.79-1.84v7.05h-1.5v-16.1h1.34v2.23
		c0.45-0.71,1.06-1.29,1.83-1.74s1.58-0.67,2.44-0.67c0.79,0,1.52,0.16,2.18,0.49s1.23,0.77,1.72,1.32s0.86,1.18,1.13,1.89
		s0.41,1.44,0.41,2.2c0,1.06-0.22,2.05-0.65,2.94c-0.43,0.9-1.04,1.62-1.81,2.16C324.71,29.18,323.8,29.45,322.76,29.45z
		 M322.34,28.13c0.63,0,1.2-0.13,1.69-0.38c0.5-0.25,0.93-0.6,1.29-1.04c0.36-0.44,0.63-0.93,0.83-1.47
		c0.19-0.55,0.29-1.11,0.29-1.69c0-0.61-0.11-1.19-0.32-1.75c-0.21-0.55-0.52-1.04-0.91-1.46c-0.4-0.42-0.85-0.76-1.36-1
		s-1.07-0.37-1.67-0.37c-0.38,0-0.78,0.07-1.19,0.22c-0.41,0.15-0.8,0.35-1.18,0.62c-0.37,0.27-0.69,0.57-0.93,0.91
		c-0.25,0.33-0.4,0.69-0.46,1.07v3.5c0.23,0.54,0.55,1.02,0.95,1.45c0.4,0.43,0.85,0.77,1.38,1.03
		C321.25,28.01,321.79,28.13,322.34,28.13z"/>
	<path class="st0" d="M335.37,29.45c-0.82,0-1.58-0.16-2.28-0.47c-0.7-0.31-1.3-0.74-1.8-1.29s-0.9-1.17-1.18-1.88
		c-0.28-0.71-0.42-1.45-0.42-2.24c0-0.82,0.14-1.58,0.42-2.29c0.28-0.71,0.67-1.33,1.19-1.88s1.12-0.98,1.82-1.29
		c0.7-0.31,1.46-0.47,2.28-0.47c0.82,0,1.58,0.16,2.27,0.47s1.29,0.74,1.8,1.29s0.91,1.17,1.19,1.88c0.28,0.71,0.42,1.47,0.42,2.29
		c0,0.79-0.14,1.53-0.42,2.24c-0.28,0.71-0.67,1.33-1.18,1.88c-0.51,0.55-1.11,0.98-1.8,1.29S336.2,29.45,335.37,29.45z
		 M331.21,23.59c0,0.85,0.19,1.61,0.56,2.3s0.88,1.24,1.51,1.64c0.63,0.4,1.33,0.6,2.09,0.6s1.46-0.2,2.09-0.61s1.14-0.96,1.52-1.67
		c0.38-0.71,0.57-1.47,0.57-2.3c0-0.84-0.19-1.62-0.57-2.31c-0.38-0.7-0.89-1.25-1.52-1.66s-1.33-0.61-2.09-0.61
		s-1.46,0.21-2.08,0.63c-0.62,0.42-1.13,0.98-1.51,1.67C331.4,21.96,331.21,22.73,331.21,23.59z"/>
	<path class="st0" d="M346.43,29.23V19.16h-4.09v-1.34h9.68v1.34h-4.09v10.08H346.43z"/>
	<path class="st0" d="M359.92,29.45c-0.95,0-1.81-0.25-2.56-0.74c-0.76-0.5-1.35-1.11-1.79-1.84v7.05h-1.5v-16.1h1.34v2.23
		c0.45-0.71,1.06-1.29,1.83-1.74s1.58-0.67,2.44-0.67c0.79,0,1.52,0.16,2.18,0.49s1.23,0.77,1.72,1.32s0.86,1.18,1.13,1.89
		s0.41,1.44,0.41,2.2c0,1.06-0.22,2.05-0.65,2.94c-0.43,0.9-1.04,1.62-1.81,2.16C361.87,29.18,360.96,29.45,359.92,29.45z
		 M359.5,28.13c0.63,0,1.2-0.13,1.69-0.38c0.5-0.25,0.93-0.6,1.29-1.04c0.36-0.44,0.63-0.93,0.83-1.47
		c0.19-0.55,0.29-1.11,0.29-1.69c0-0.61-0.11-1.19-0.32-1.75c-0.21-0.55-0.52-1.04-0.91-1.46c-0.4-0.42-0.85-0.76-1.36-1
		s-1.07-0.37-1.67-0.37c-0.38,0-0.78,0.07-1.19,0.22c-0.41,0.15-0.8,0.35-1.18,0.62c-0.37,0.27-0.69,0.57-0.93,0.91
		c-0.25,0.33-0.4,0.69-0.46,1.07v3.5c0.23,0.54,0.55,1.02,0.95,1.45c0.4,0.43,0.85,0.77,1.38,1.03
		C358.4,28.01,358.94,28.13,359.5,28.13z"/>
	<path class="st0" d="M372.53,29.45c-0.82,0-1.58-0.16-2.28-0.47c-0.7-0.31-1.3-0.74-1.8-1.29s-0.9-1.17-1.18-1.88
		c-0.28-0.71-0.42-1.45-0.42-2.24c0-0.82,0.14-1.58,0.42-2.29c0.28-0.71,0.67-1.33,1.19-1.88s1.12-0.98,1.82-1.29
		c0.7-0.31,1.46-0.47,2.28-0.47c0.82,0,1.58,0.16,2.27,0.47s1.29,0.74,1.8,1.29s0.91,1.17,1.19,1.88c0.28,0.71,0.42,1.47,0.42,2.29
		c0,0.79-0.14,1.53-0.42,2.24c-0.28,0.71-0.67,1.33-1.18,1.88c-0.51,0.55-1.11,0.98-1.8,1.29S373.36,29.45,372.53,29.45z
		 M368.37,23.59c0,0.85,0.19,1.61,0.56,2.3s0.88,1.24,1.51,1.64c0.63,0.4,1.33,0.6,2.09,0.6s1.46-0.2,2.09-0.61s1.14-0.96,1.52-1.67
		c0.38-0.71,0.57-1.47,0.57-2.3c0-0.84-0.19-1.62-0.57-2.31c-0.38-0.7-0.89-1.25-1.52-1.66s-1.33-0.61-2.09-0.61
		s-1.46,0.21-2.08,0.63c-0.62,0.42-1.13,0.98-1.51,1.67C368.56,21.96,368.37,22.73,368.37,23.59z"/>
	<path class="st0" d="M380.71,29.23V17.82h1.5v4.91h6.56v-4.91h1.5v11.42h-1.5v-5.17h-6.56v5.17H380.71z"/>
	<path class="st0" d="M393.53,29.23V17.82h1.5v4.91h6.56v-4.91h1.5v11.42h-1.5v-5.17h-6.56v5.17H393.53z"/>
	<path class="st0" d="M406.36,29.23V17.82h1.5v4.03h2.6c1.3,0,2.29,0.33,2.96,1c0.67,0.67,1,1.54,1,2.62c0,0.7-0.15,1.34-0.44,1.91
		c-0.29,0.57-0.72,1.02-1.29,1.36c-0.56,0.34-1.27,0.5-2.12,0.5H406.36z M407.86,28.05h2.51c0.6,0,1.09-0.12,1.45-0.36
		c0.37-0.24,0.64-0.55,0.81-0.94s0.26-0.81,0.26-1.26c0-0.44-0.08-0.84-0.23-1.22c-0.15-0.37-0.42-0.67-0.79-0.9
		s-0.89-0.34-1.55-0.34h-2.46V28.05z M416.5,29.23v-11.4h1.5v11.4H416.5z"/>
	<path class="st0" d="M426.25,29.45c-0.82,0-1.58-0.16-2.29-0.47c-0.7-0.31-1.31-0.75-1.83-1.29c-0.51-0.55-0.91-1.18-1.2-1.9
		c-0.29-0.72-0.43-1.48-0.43-2.3c0-1.06,0.25-2.04,0.74-2.93c0.49-0.89,1.17-1.6,2.03-2.13s1.85-0.8,2.95-0.8
		c1.13,0,2.12,0.27,2.96,0.81s1.51,1.25,1.99,2.13s0.73,1.85,0.73,2.9c0,0.12,0,0.23,0,0.34s-0.01,0.19-0.02,0.25h-9.81
		c0.07,0.82,0.3,1.54,0.69,2.18c0.39,0.63,0.89,1.14,1.52,1.51c0.62,0.37,1.3,0.56,2.04,0.56c0.75,0,1.46-0.19,2.12-0.57
		c0.67-0.38,1.13-0.88,1.4-1.5l1.3,0.35c-0.24,0.54-0.59,1.03-1.08,1.47s-1.05,0.78-1.71,1.02C427.7,29.33,427,29.45,426.25,29.45z
		 M422.02,22.99h8.47c-0.06-0.83-0.28-1.55-0.67-2.18c-0.39-0.62-0.89-1.11-1.52-1.47c-0.62-0.36-1.31-0.53-2.06-0.53
		s-1.43,0.18-2.05,0.53c-0.62,0.36-1.12,0.85-1.51,1.48C422.31,21.45,422.08,22.17,422.02,22.99z"/>
	<path class="st0" d="M439.8,29.23V17.82h1.5v4.88h1.72l3.85-4.88h1.72l-4.38,5.54l4.93,5.87h-1.76l-4.36-5.15h-1.72v5.15H439.8z"/>
	<path class="st0" d="M455.55,29.45c-0.82,0-1.58-0.16-2.28-0.47c-0.7-0.31-1.3-0.74-1.8-1.29s-0.9-1.17-1.18-1.88
		c-0.28-0.71-0.42-1.45-0.42-2.24c0-0.82,0.14-1.58,0.42-2.29c0.28-0.71,0.67-1.33,1.19-1.88s1.12-0.98,1.82-1.29
		c0.7-0.31,1.46-0.47,2.28-0.47c0.82,0,1.58,0.16,2.27,0.47s1.29,0.74,1.8,1.29s0.91,1.17,1.19,1.88c0.28,0.71,0.42,1.47,0.42,2.29
		c0,0.79-0.14,1.53-0.42,2.24c-0.28,0.71-0.67,1.33-1.18,1.88c-0.51,0.55-1.11,0.98-1.8,1.29S456.39,29.45,455.55,29.45z
		 M451.39,23.59c0,0.85,0.19,1.61,0.56,2.3s0.88,1.24,1.51,1.64c0.63,0.4,1.33,0.6,2.09,0.6s1.46-0.2,2.09-0.61s1.14-0.96,1.52-1.67
		c0.38-0.71,0.57-1.47,0.57-2.3c0-0.84-0.19-1.62-0.57-2.31c-0.38-0.7-0.89-1.25-1.52-1.66s-1.33-0.61-2.09-0.61
		s-1.46,0.21-2.08,0.63c-0.62,0.42-1.13,0.98-1.51,1.67C451.58,21.96,451.39,22.73,451.39,23.59z"/>
	<path class="st0" d="M463.74,29.23V17.82h1.54l4.55,7.87l4.58-7.87h1.47v11.42h-1.43v-9.18l-4.14,7.14h-0.97l-4.18-7.14v9.18
		H463.74z"/>
	<path class="st0" d="M479.16,29.23V17.82h9.22v11.42h-1.5V19.16h-6.23v10.08H479.16z"/>
	<path class="st0" d="M490.57,29.23v-1.36c0.4,0,0.75-0.11,1.06-0.32c0.31-0.21,0.58-0.57,0.83-1.08c0.24-0.51,0.44-1.21,0.58-2.1
		c0.15-0.89,0.24-2.03,0.29-3.41l0.13-3.16h7.44v11.35h-1.5V19.16h-4.62l-0.04,1.96c-0.06,1.57-0.18,2.88-0.37,3.93
		c-0.19,1.05-0.46,1.88-0.8,2.49s-0.77,1.04-1.26,1.31S491.22,29.23,490.57,29.23z"/>
	<path class="st0" d="M509.14,29.45c-0.82,0-1.58-0.16-2.29-0.47c-0.7-0.31-1.31-0.75-1.83-1.29c-0.51-0.55-0.91-1.18-1.2-1.9
		c-0.29-0.72-0.43-1.48-0.43-2.3c0-1.06,0.25-2.04,0.74-2.93c0.49-0.89,1.17-1.6,2.04-2.13s1.85-0.8,2.95-0.8
		c1.13,0,2.12,0.27,2.96,0.81c0.84,0.54,1.51,1.25,1.99,2.13c0.48,0.88,0.73,1.85,0.73,2.9c0,0.12,0,0.23,0,0.34
		s-0.01,0.19-0.02,0.25h-9.81c0.07,0.82,0.3,1.54,0.69,2.18c0.39,0.63,0.89,1.14,1.52,1.51c0.62,0.37,1.3,0.56,2.04,0.56
		c0.75,0,1.46-0.19,2.12-0.57c0.67-0.38,1.13-0.88,1.4-1.5l1.3,0.35c-0.23,0.54-0.59,1.03-1.08,1.47c-0.48,0.44-1.05,0.78-1.7,1.02
		C510.59,29.33,509.89,29.45,509.14,29.45z M504.92,22.99h8.47c-0.06-0.83-0.28-1.55-0.67-2.18c-0.39-0.62-0.89-1.11-1.52-1.47
		c-0.62-0.36-1.31-0.53-2.06-0.53s-1.43,0.18-2.05,0.53s-1.12,0.85-1.51,1.48C505.2,21.45,504.98,22.17,504.92,22.99z"/>
	<path class="st0" d="M517.08,29.23V17.82h1.5v4.88h1.72l3.85-4.88h1.72l-4.38,5.54l4.93,5.87h-1.76l-4.36-5.15h-1.72v5.15H517.08z"
		/>
	<path class="st0" d="M532.92,29.45c-0.84,0-1.6-0.16-2.3-0.47c-0.7-0.31-1.31-0.75-1.83-1.3c-0.52-0.55-0.92-1.19-1.21-1.9
		c-0.29-0.71-0.43-1.47-0.43-2.27c0-1.08,0.24-2.06,0.73-2.95c0.48-0.89,1.16-1.6,2.02-2.12c0.87-0.52,1.86-0.79,2.99-0.79
		c1.07,0,2.02,0.25,2.84,0.74c0.82,0.49,1.43,1.15,1.83,1.99l-1.45,0.46c-0.32-0.59-0.77-1.05-1.35-1.38
		c-0.58-0.33-1.22-0.5-1.92-0.5c-0.76,0-1.46,0.2-2.09,0.59s-1.13,0.93-1.51,1.62s-0.56,1.46-0.56,2.34c0,0.86,0.19,1.64,0.57,2.34
		c0.38,0.7,0.89,1.26,1.52,1.67c0.63,0.42,1.33,0.62,2.09,0.62c0.5,0,0.98-0.09,1.44-0.26c0.46-0.18,0.87-0.41,1.21-0.72
		c0.34-0.3,0.58-0.63,0.69-0.98l1.47,0.44c-0.21,0.54-0.55,1.03-1.02,1.46s-1.03,0.77-1.67,1.01
		C534.34,29.33,533.66,29.45,532.92,29.45z"/>
	<path class="st0" d="M540.01,29.23V17.82h1.5v4.03h2.6c1.31,0,2.29,0.33,2.96,1c0.67,0.67,1,1.54,1,2.62c0,0.7-0.15,1.34-0.44,1.91
		c-0.29,0.57-0.72,1.02-1.29,1.36c-0.57,0.34-1.27,0.5-2.12,0.5H540.01z M541.5,28.05h2.51c0.6,0,1.08-0.12,1.45-0.36
		c0.37-0.24,0.64-0.55,0.81-0.94c0.18-0.39,0.26-0.81,0.26-1.26c0-0.44-0.08-0.84-0.23-1.22s-0.42-0.67-0.79-0.9
		s-0.89-0.34-1.55-0.34h-2.46V28.05z M550.15,29.23v-11.4h1.5v11.4H550.15z"/>
	<path class="st0" d="M560.34,23.93v-1.39h6.42v1.39H560.34z"/>
	<path class="st0" d="M297.79,55.85c-0.95,0-1.81-0.25-2.56-0.74c-0.76-0.5-1.35-1.11-1.79-1.84v7.05h-1.5v-16.1h1.34v2.23
		c0.45-0.71,1.06-1.29,1.83-1.74s1.58-0.67,2.44-0.67c0.79,0,1.52,0.16,2.18,0.49s1.23,0.77,1.72,1.32
		c0.48,0.55,0.86,1.18,1.13,1.89c0.27,0.71,0.41,1.44,0.41,2.2c0,1.07-0.22,2.05-0.65,2.94c-0.43,0.9-1.04,1.62-1.81,2.16
		S298.83,55.85,297.79,55.85z M297.37,54.53c0.63,0,1.2-0.13,1.69-0.38c0.5-0.25,0.93-0.6,1.29-1.04c0.36-0.44,0.63-0.93,0.83-1.47
		c0.19-0.55,0.29-1.11,0.29-1.69c0-0.61-0.11-1.19-0.32-1.75c-0.21-0.55-0.52-1.04-0.91-1.46c-0.4-0.42-0.85-0.76-1.36-1
		c-0.51-0.25-1.07-0.37-1.67-0.37c-0.38,0-0.78,0.07-1.19,0.22c-0.41,0.15-0.8,0.35-1.18,0.62c-0.37,0.27-0.69,0.57-0.93,0.91
		c-0.25,0.33-0.4,0.69-0.46,1.07v3.5c0.23,0.54,0.55,1.02,0.95,1.45c0.4,0.43,0.85,0.77,1.38,1.03
		C296.28,54.41,296.82,54.53,297.37,54.53z"/>
	<path class="st0" d="M304.59,52.35c0-0.71,0.21-1.33,0.62-1.85c0.41-0.52,0.98-0.92,1.71-1.2c0.73-0.28,1.57-0.43,2.52-0.43
		c0.56,0,1.14,0.04,1.74,0.13s1.14,0.22,1.61,0.4v-0.96c0-0.96-0.29-1.73-0.86-2.3s-1.36-0.85-2.38-0.85
		c-0.62,0-1.22,0.11-1.82,0.34c-0.59,0.23-1.21,0.56-1.86,1l-0.57-1.06c0.75-0.51,1.48-0.9,2.2-1.15c0.72-0.26,1.45-0.39,2.2-0.39
		c1.41,0,2.52,0.4,3.34,1.2s1.23,1.91,1.23,3.32v5.27c0,0.2,0.04,0.35,0.13,0.45c0.09,0.09,0.23,0.15,0.42,0.16v1.19
		c-0.16,0.01-0.3,0.03-0.42,0.04c-0.12,0.01-0.21,0.01-0.26,0c-0.37-0.01-0.65-0.13-0.84-0.35c-0.19-0.22-0.29-0.45-0.31-0.7
		l-0.02-0.84c-0.51,0.66-1.18,1.17-2,1.53s-1.66,0.54-2.51,0.54c-0.73,0-1.4-0.16-1.99-0.47c-0.59-0.31-1.06-0.74-1.39-1.27
		C304.75,53.58,304.59,53,304.59,52.35z M312.27,53.23c0.16-0.2,0.29-0.4,0.37-0.59c0.09-0.19,0.13-0.36,0.13-0.5v-1.66
		c-0.5-0.19-1.02-0.33-1.55-0.44s-1.07-0.15-1.62-0.15c-1.07,0-1.94,0.21-2.6,0.63c-0.66,0.42-0.99,1-0.99,1.72
		c0,0.42,0.11,0.82,0.33,1.19c0.22,0.37,0.54,0.68,0.97,0.92c0.42,0.24,0.92,0.36,1.5,0.36c0.72,0,1.39-0.14,2.01-0.42
		C311.45,54.02,311.93,53.66,312.27,53.23z"/>
	<path class="st0" d="M320.83,55.85c-1.06,0-1.96-0.2-2.71-0.6c-0.75-0.4-1.32-0.97-1.72-1.71l1.23-0.55
		c0.28,0.51,0.68,0.91,1.21,1.2s1.17,0.43,1.91,0.43c0.89,0,1.61-0.21,2.14-0.62c0.54-0.41,0.8-0.97,0.8-1.66
		c0-0.63-0.21-1.14-0.64-1.53c-0.42-0.38-1.01-0.58-1.76-0.6h-1.17v-1.03h1.25c0.32,0,0.62-0.09,0.88-0.27
		c0.26-0.18,0.47-0.41,0.62-0.71s0.22-0.63,0.22-1c0-0.58-0.2-1.04-0.6-1.39c-0.4-0.35-0.99-0.53-1.77-0.53
		c-0.65,0-1.18,0.13-1.62,0.38c-0.43,0.26-0.78,0.63-1.04,1.13l-1.14-0.62c0.34-0.67,0.84-1.2,1.51-1.58
		c0.67-0.38,1.45-0.57,2.34-0.57c0.73,0,1.38,0.12,1.92,0.36s0.98,0.59,1.3,1.04s0.47,0.99,0.47,1.62c0,0.54-0.13,1.05-0.4,1.51
		c-0.26,0.46-0.63,0.81-1.1,1.05c0.67,0.21,1.2,0.57,1.57,1.08c0.37,0.52,0.56,1.12,0.56,1.81c0,0.69-0.18,1.29-0.55,1.79
		c-0.37,0.5-0.87,0.88-1.52,1.15S321.66,55.85,320.83,55.85z"/>
	<path class="st0" d="M333.48,55.85c-0.95,0-1.81-0.25-2.56-0.74c-0.76-0.5-1.35-1.11-1.79-1.84v7.05h-1.5v-16.1h1.34v2.23
		c0.45-0.71,1.06-1.29,1.83-1.74s1.58-0.67,2.44-0.67c0.79,0,1.52,0.16,2.18,0.49s1.23,0.77,1.72,1.32
		c0.48,0.55,0.86,1.18,1.13,1.89c0.27,0.71,0.41,1.44,0.41,2.2c0,1.07-0.22,2.05-0.65,2.94c-0.43,0.9-1.04,1.62-1.81,2.16
		S334.52,55.85,333.48,55.85z M333.06,54.53c0.63,0,1.2-0.13,1.69-0.38c0.5-0.25,0.93-0.6,1.29-1.04c0.36-0.44,0.63-0.93,0.83-1.47
		c0.19-0.55,0.29-1.11,0.29-1.69c0-0.61-0.11-1.19-0.32-1.75c-0.21-0.55-0.52-1.04-0.91-1.46c-0.4-0.42-0.85-0.76-1.36-1
		c-0.51-0.25-1.07-0.37-1.67-0.37c-0.38,0-0.78,0.07-1.19,0.22c-0.41,0.15-0.8,0.35-1.18,0.62c-0.37,0.27-0.69,0.57-0.93,0.91
		c-0.25,0.33-0.4,0.69-0.46,1.07v3.5c0.23,0.54,0.55,1.02,0.95,1.45c0.4,0.43,0.85,0.77,1.38,1.03
		C331.96,54.41,332.5,54.53,333.06,54.53z"/>
	<path class="st0" d="M340.27,52.35c0-0.71,0.21-1.33,0.62-1.85c0.41-0.52,0.98-0.92,1.71-1.2c0.73-0.28,1.57-0.43,2.52-0.43
		c0.56,0,1.14,0.04,1.74,0.13s1.14,0.22,1.61,0.4v-0.96c0-0.96-0.29-1.73-0.86-2.3s-1.36-0.85-2.38-0.85
		c-0.62,0-1.22,0.11-1.82,0.34c-0.59,0.23-1.21,0.56-1.86,1l-0.57-1.06c0.75-0.51,1.48-0.9,2.2-1.15c0.72-0.26,1.45-0.39,2.2-0.39
		c1.41,0,2.52,0.4,3.34,1.2s1.23,1.91,1.23,3.32v5.27c0,0.2,0.04,0.35,0.13,0.45c0.09,0.09,0.23,0.15,0.42,0.16v1.19
		c-0.16,0.01-0.3,0.03-0.42,0.04c-0.12,0.01-0.21,0.01-0.26,0c-0.37-0.01-0.65-0.13-0.84-0.35c-0.19-0.22-0.29-0.45-0.31-0.7
		l-0.02-0.84c-0.51,0.66-1.18,1.17-2,1.53s-1.66,0.54-2.51,0.54c-0.73,0-1.4-0.16-1.99-0.47c-0.59-0.31-1.06-0.74-1.39-1.27
		C340.44,53.58,340.27,53,340.27,52.35z M347.95,53.23c0.16-0.2,0.29-0.4,0.37-0.59c0.09-0.19,0.13-0.36,0.13-0.5v-1.66
		c-0.5-0.19-1.02-0.33-1.55-0.44s-1.07-0.15-1.62-0.15c-1.07,0-1.94,0.21-2.6,0.63c-0.66,0.42-0.99,1-0.99,1.72
		c0,0.42,0.11,0.82,0.33,1.19c0.22,0.37,0.54,0.68,0.97,0.92c0.42,0.24,0.92,0.36,1.5,0.36c0.72,0,1.39-0.14,2.01-0.42
		C347.13,54.02,347.61,53.66,347.95,53.23z"/>
	<path class="st0" d="M358.44,55.85c-1.85,0-3.25-0.56-4.19-1.69c-0.95-1.13-1.42-2.69-1.42-4.68c0-1.41,0.12-2.6,0.35-3.58
		c0.23-0.97,0.58-1.78,1.03-2.41c0.45-0.63,1.01-1.15,1.68-1.56c0.67-0.41,1.43-0.74,2.3-1l4.82-1.57l0.13,1.3l-4.64,1.5
		c-0.88,0.29-1.61,0.66-2.2,1.11c-0.59,0.45-1.04,1.02-1.38,1.71c-0.33,0.69-0.55,1.6-0.65,2.71c0.38-0.85,0.97-1.51,1.76-1.97
		s1.71-0.69,2.75-0.69c1.12,0,2.06,0.23,2.85,0.68c0.78,0.45,1.38,1.08,1.79,1.88c0.41,0.8,0.62,1.72,0.62,2.77
		c0,1.11-0.22,2.07-0.65,2.89s-1.06,1.46-1.89,1.92C360.69,55.62,359.66,55.85,358.44,55.85z M358.44,54.53
		c1.31,0,2.31-0.37,3.03-1.12c0.71-0.75,1.07-1.74,1.07-2.99c0-1.22-0.35-2.21-1.04-2.98c-0.7-0.77-1.71-1.15-3.05-1.15
		c-0.76,0-1.45,0.16-2.07,0.48c-0.62,0.32-1.1,0.78-1.46,1.39c-0.36,0.61-0.54,1.36-0.54,2.26c0,0.78,0.16,1.49,0.47,2.11
		c0.31,0.62,0.77,1.11,1.38,1.47C356.82,54.35,357.57,54.53,358.44,54.53z"/>
	<path class="st0" d="M371.45,55.85c-0.82,0-1.58-0.16-2.28-0.47c-0.7-0.31-1.3-0.74-1.8-1.29s-0.9-1.17-1.18-1.88
		c-0.28-0.71-0.42-1.46-0.42-2.24c0-0.82,0.14-1.58,0.42-2.29c0.28-0.71,0.67-1.33,1.19-1.88c0.51-0.55,1.12-0.98,1.82-1.29
		c0.7-0.31,1.46-0.47,2.28-0.47c0.82,0,1.58,0.16,2.27,0.47s1.29,0.74,1.8,1.29c0.51,0.55,0.91,1.17,1.19,1.88
		c0.28,0.71,0.42,1.47,0.42,2.29c0,0.79-0.14,1.53-0.42,2.24c-0.28,0.71-0.67,1.33-1.18,1.88c-0.51,0.55-1.11,0.98-1.8,1.29
		S372.28,55.85,371.45,55.85z M367.29,49.99c0,0.84,0.19,1.61,0.56,2.3s0.88,1.24,1.51,1.64c0.63,0.4,1.33,0.6,2.09,0.6
		s1.46-0.2,2.09-0.61c0.63-0.41,1.14-0.96,1.52-1.67c0.38-0.71,0.57-1.47,0.57-2.3c0-0.84-0.19-1.62-0.57-2.31
		c-0.38-0.7-0.89-1.25-1.52-1.66c-0.63-0.41-1.33-0.61-2.09-0.61s-1.46,0.21-2.08,0.63s-1.13,0.98-1.51,1.67
		C367.48,48.35,367.29,49.13,367.29,49.99z"/>
	<path class="st0" d="M382.51,55.63V45.56h-4.09v-1.34h9.68v1.34h-4.09v10.08H382.51z"/>
	<path class="st0" d="M390.12,55.63V44.21h1.5v4.88h1.72l3.85-4.88h1.72l-4.38,5.54l4.93,5.87h-1.76l-4.36-5.15h-1.72v5.15H390.12z"
		/>
	<path class="st0" d="M400.62,52.35c0-0.71,0.21-1.33,0.62-1.85c0.41-0.52,0.98-0.92,1.71-1.2c0.73-0.28,1.57-0.43,2.52-0.43
		c0.56,0,1.14,0.04,1.74,0.13s1.14,0.22,1.61,0.4v-0.96c0-0.96-0.29-1.73-0.86-2.3s-1.36-0.85-2.38-0.85
		c-0.62,0-1.22,0.11-1.82,0.34c-0.59,0.23-1.21,0.56-1.86,1l-0.57-1.06c0.75-0.51,1.48-0.9,2.2-1.15c0.72-0.26,1.45-0.39,2.2-0.39
		c1.41,0,2.52,0.4,3.34,1.2s1.23,1.91,1.23,3.32v5.27c0,0.2,0.04,0.35,0.13,0.45c0.09,0.09,0.23,0.15,0.42,0.16v1.19
		c-0.16,0.01-0.3,0.03-0.42,0.04c-0.12,0.01-0.21,0.01-0.26,0c-0.37-0.01-0.65-0.13-0.84-0.35c-0.19-0.22-0.29-0.45-0.31-0.7
		L409,53.78c-0.51,0.66-1.18,1.17-2,1.53s-1.66,0.54-2.51,0.54c-0.73,0-1.4-0.16-1.99-0.47c-0.59-0.31-1.06-0.74-1.39-1.27
		C400.78,53.58,400.62,53,400.62,52.35z M408.3,53.23c0.16-0.2,0.29-0.4,0.37-0.59c0.09-0.19,0.13-0.36,0.13-0.5v-1.66
		c-0.5-0.19-1.02-0.33-1.55-0.44s-1.07-0.15-1.62-0.15c-1.07,0-1.94,0.21-2.6,0.63c-0.66,0.42-0.99,1-0.99,1.72
		c0,0.42,0.11,0.82,0.33,1.19c0.22,0.37,0.54,0.68,0.97,0.92c0.42,0.24,0.92,0.36,1.5,0.36c0.72,0,1.39-0.14,2.01-0.42
		C407.48,54.02,407.96,53.66,408.3,53.23z"/>
	<path class="st0" d="M419.12,55.63v-11.4h1.5v9.38l6.97-9.4h1.34v11.42h-1.5v-9.23l-6.86,9.23H419.12z"/>
	<path class="st0" d="M437.8,55.63V44.21h9.22v11.42h-1.5V45.56h-6.23v10.08H437.8z"/>
	<path class="st0" d="M456.17,55.85c-0.95,0-1.81-0.25-2.56-0.74c-0.75-0.5-1.35-1.11-1.79-1.84v7.05h-1.5v-16.1h1.34v2.23
		c0.45-0.71,1.06-1.29,1.83-1.74s1.58-0.67,2.44-0.67c0.79,0,1.52,0.16,2.18,0.49s1.23,0.77,1.72,1.32
		c0.48,0.55,0.86,1.18,1.13,1.89c0.27,0.71,0.41,1.44,0.41,2.2c0,1.07-0.22,2.05-0.65,2.94c-0.43,0.9-1.04,1.62-1.82,2.16
		S457.21,55.85,456.17,55.85z M455.75,54.53c0.63,0,1.2-0.13,1.69-0.38c0.5-0.25,0.93-0.6,1.29-1.04c0.36-0.44,0.63-0.93,0.83-1.47
		s0.29-1.11,0.29-1.69c0-0.61-0.11-1.19-0.32-1.75s-0.52-1.04-0.91-1.46c-0.4-0.42-0.85-0.76-1.36-1c-0.51-0.25-1.07-0.37-1.67-0.37
		c-0.38,0-0.78,0.07-1.19,0.22c-0.41,0.15-0.8,0.35-1.18,0.62c-0.37,0.27-0.69,0.57-0.94,0.91c-0.25,0.33-0.4,0.69-0.46,1.07v3.5
		c0.23,0.54,0.55,1.02,0.95,1.45c0.4,0.43,0.85,0.77,1.38,1.03C454.65,54.41,455.19,54.53,455.75,54.53z"/>
	<path class="st0" d="M463.87,55.63v-11.4h1.5v9.38l6.97-9.4h1.34v11.42h-1.5v-9.23l-6.86,9.23H463.87z"/>
	<path class="st0" d="M476.94,55.63V44.21h1.54l4.55,7.87l4.58-7.87h1.47v11.42h-1.43v-9.18l-4.14,7.14h-0.97l-4.18-7.14v9.18
		H476.94z"/>
	<path class="st0" d="M497.33,55.85c-0.82,0-1.58-0.16-2.29-0.47c-0.7-0.31-1.31-0.75-1.83-1.29c-0.51-0.55-0.91-1.18-1.2-1.9
		s-0.43-1.48-0.43-2.3c0-1.06,0.25-2.04,0.74-2.93s1.17-1.6,2.04-2.13s1.85-0.8,2.95-0.8c1.13,0,2.12,0.27,2.96,0.81
		c0.84,0.54,1.51,1.25,1.99,2.13c0.48,0.88,0.73,1.85,0.73,2.9c0,0.12,0,0.23,0,0.34s-0.01,0.19-0.02,0.25h-9.81
		c0.07,0.82,0.3,1.54,0.69,2.18s0.89,1.14,1.52,1.51c0.62,0.37,1.3,0.56,2.04,0.56c0.75,0,1.46-0.19,2.12-0.57
		c0.67-0.38,1.13-0.88,1.4-1.5l1.3,0.35c-0.23,0.54-0.59,1.03-1.08,1.47c-0.48,0.44-1.05,0.78-1.7,1.02
		C498.78,55.73,498.08,55.85,497.33,55.85z M493.11,49.38h8.47c-0.06-0.83-0.28-1.55-0.67-2.18c-0.39-0.63-0.89-1.11-1.52-1.47
		c-0.62-0.36-1.31-0.53-2.06-0.53s-1.43,0.18-2.05,0.53s-1.12,0.85-1.51,1.48C493.39,47.85,493.16,48.57,493.11,49.38z"/>
	<path class="st0" d="M505.27,55.63V44.21h1.5v4.91h6.56v-4.91h1.5v11.42h-1.5v-5.17h-6.56v5.17H505.27z"/>
	<path class="st0" d="M523.07,55.85c-0.82,0-1.58-0.16-2.29-0.47c-0.7-0.31-1.31-0.75-1.83-1.29c-0.51-0.55-0.91-1.18-1.2-1.9
		s-0.43-1.48-0.43-2.3c0-1.06,0.25-2.04,0.74-2.93s1.17-1.6,2.04-2.13s1.85-0.8,2.95-0.8c1.13,0,2.12,0.27,2.96,0.81
		c0.84,0.54,1.51,1.25,1.99,2.13c0.48,0.88,0.73,1.85,0.73,2.9c0,0.12,0,0.23,0,0.34s-0.01,0.19-0.02,0.25h-9.81
		c0.07,0.82,0.3,1.54,0.69,2.18s0.89,1.14,1.52,1.51c0.62,0.37,1.3,0.56,2.04,0.56c0.75,0,1.46-0.19,2.12-0.57
		c0.67-0.38,1.13-0.88,1.4-1.5l1.3,0.35c-0.23,0.54-0.59,1.03-1.08,1.47c-0.48,0.44-1.05,0.78-1.7,1.02
		C524.52,55.73,523.82,55.85,523.07,55.85z M518.84,49.38h8.47c-0.06-0.83-0.28-1.55-0.67-2.18c-0.39-0.63-0.89-1.11-1.52-1.47
		c-0.62-0.36-1.31-0.53-2.06-0.53s-1.43,0.18-2.05,0.53s-1.12,0.85-1.51,1.48C519.13,47.85,518.9,48.57,518.84,49.38z"/>
	<path class="st0" d="M531.01,55.63V44.21h1.5v4.91h6.56v-4.91h1.5v11.42h-1.5v-5.17h-6.56v5.17H531.01z"/>
	<path class="st0" d="M543.84,55.63v-11.4h1.5v9.38l6.97-9.4h1.34v11.42h-1.5v-9.23l-6.86,9.23H543.84z"/>
	<path class="st0" d="M561.88,55.85c-0.82,0-1.58-0.16-2.29-0.47c-0.7-0.31-1.31-0.75-1.83-1.29c-0.51-0.55-0.91-1.18-1.2-1.9
		s-0.43-1.48-0.43-2.3c0-1.06,0.25-2.04,0.74-2.93s1.17-1.6,2.04-2.13s1.85-0.8,2.95-0.8c1.13,0,2.12,0.27,2.96,0.81
		c0.84,0.54,1.51,1.25,1.99,2.13c0.48,0.88,0.73,1.85,0.73,2.9c0,0.12,0,0.23,0,0.34s-0.01,0.19-0.02,0.25h-9.81
		c0.07,0.82,0.3,1.54,0.69,2.18s0.89,1.14,1.52,1.51c0.62,0.37,1.3,0.56,2.04,0.56c0.75,0,1.46-0.19,2.12-0.57
		c0.67-0.38,1.13-0.88,1.4-1.5l1.3,0.35c-0.23,0.54-0.59,1.03-1.08,1.47c-0.48,0.44-1.05,0.78-1.7,1.02
		C563.32,55.73,562.62,55.85,561.88,55.85z M557.65,49.38h8.47c-0.06-0.83-0.28-1.55-0.67-2.18c-0.39-0.63-0.89-1.11-1.52-1.47
		c-0.62-0.36-1.31-0.53-2.06-0.53s-1.43,0.18-2.05,0.53s-1.12,0.85-1.51,1.48C557.93,47.85,557.71,48.57,557.65,49.38z"/>
</g>
<g>
	<path class="st0" d="M109.9,17.2H96.81c-1.1,0-2.18,0.36-3.06,1.02l-3.18,2.06c-1.78,1.15-2.85,3.13-2.85,5.25V55h8.22v-27.1
		c0-1.82,1.48-3.3,3.3-3.3h10.67V17.2z"/>
	<path class="st0" d="M115.65,17.2h8.22v22.71c0,0.51-0.24,0.75,0,0.3l12.55-21.89c0.37-0.69,1.09-1.12,1.87-1.12h3.18
		c1.62,0,2.94,1.32,2.94,2.94V55h-8.22V33.59c0-0.62,0.28-0.51,0,0.04l-11.38,19.53c-0.58,1.13-1.75,1.84-3.02,1.84h-2.67
		c-1.92,0-3.48-1.56-3.48-3.48V17.2z"/>
	<path class="st0" d="M152.63,17.2h8.22v14.79h2.39c0.56,0,1.09-0.28,1.4-0.75v0c2.91-4.36,4.7-8.55,5.23-13.77l0.03-0.27h8.22
		l-0.22,1.23c-0.93,5.13-1.51,9.45-4.71,13.56l-1.64,1.64l4.11,3.29c1.64,1.64,2.19,2.93,2.39,5.1c0.08,0.88,0.08,1.69,0.08,2.29V55
		h-8.22V41.83c0-1.02-0.51-1.96-1.35-2.53l-0.23-0.15c-0.58-0.38-1.25-0.59-1.95-0.59h-5.51V55h-8.22V17.2z"/>
	<path class="st0" d="M203.16,17.2c-10.66,0-19.31,8.65-19.31,19.31s8.65,19.31,19.31,19.31c10.66,0,19.31-8.65,19.31-19.31
		S213.83,17.2,203.16,17.2z M202.85,48.23c-6.75,0-11.41-4.65-11.41-11.41s4.65-11.41,11.41-11.41c6.75,0,11.41,4.65,11.41,11.41
		S209.6,48.23,202.85,48.23z"/>
	<path class="st0" d="M226.17,55h9.04l2.47-26.3l6.98,23.01c0.82,4.93,5.75,4.93,6.57,0l6.54-23.03L260.68,55h9.04l-5.34-33.69
		c-2.47-6.57-9.04-6.57-11.09,0l-5.34,18.08l-5.34-17.26c-2.47-7.4-9.86-7.4-11.5,0L226.17,55z"/>
</g>
<g>
	<rect x="34.67" y="31.49" class="st0" width="33.11" height="5.54"/>
	<path class="st0" d="M62.46,31.57c0.09,0.93,0.14,1.88,0.14,2.84c0,15.57-12.62,28.19-28.19,28.19S6.21,49.98,6.21,34.4
		S18.83,6.21,34.41,6.21c13.35,0,24.53,9.28,27.45,21.73h6.35C65.18,12.03,51.2,0,34.41,0C15.4,0,0,15.4,0,34.4
		s15.4,34.41,34.41,34.41s34.4-15.4,34.4-34.41c0-0.96-0.04-1.9-0.12-2.84H62.46z"/>
	<path class="st0" d="M49.37,40.86c-2.5,5.79-8.26,9.83-14.96,9.83c-9,0-16.29-7.29-16.29-16.29s7.29-16.29,16.29-16.29
		c6.67,0,12.4,4.01,14.93,9.75h6.08c-2.79-8.95-11.14-15.45-21.01-15.45c-12.15,0-22,9.85-22,22s9.85,22,22,22
		c9.9,0,18.27-6.54,21.03-15.54H49.37z"/>
</g>
</svg>
