<?xml version="1.0" encoding="utf-8"?>
<!-- Generator: Adobe Illustrator 24.1.2, SVG Export Plug-In . SVG Version: 6.00 Build 0)  -->
<svg version="1.1" id="Слой_1" xmlns="http://www.w3.org/2000/svg" xmlns:xlink="http://www.w3.org/1999/xlink" x="0px" y="0px"
	 viewBox="0 0 70 70" style="enable-background:new 0 0 70 70;" xml:space="preserve">
<style type="text/css">
	.st0{fill-rule:evenodd;clip-rule:evenodd;fill:#34759d;}
	.st1{fill-rule:evenodd;clip-rule:evenodd;fill:#FFFFFF;}
</style>
<path class="st0" d="M5,27.7v10.43c21.64,5.76,42.57,5.82,62.91-0.12l0.03-10.15C47.57,20.92,26.42,20.83,5,27.7z"/>
<g>
	<path class="st1" d="M8.78,27.79L8.75,38.07l7.86-4.61l0.03,6.04c1.95,0.4,3.81,0.71,5.76,0.87l0.03-15.51l-8.64,5.45v-3.9
		C12.03,26.84,10.32,27.27,8.78,27.79z"/>
</g>
<g>
	<path class="st1" d="M57.29,26.4l0.06,11.8c4.89-0.87,7.62-3.47,6.9-6.44C63.76,29.62,60.76,27.14,57.29,26.4z"/>
</g>
<g>
	<path class="st1" d="M50.04,25.13v15.08c1.61-0.12,3.28-0.43,5.17-0.68V25.91C53.51,25.53,51.78,25.26,50.04,25.13z"/>
</g>
<path class="st0" d="M7.69,40.52l0.06,12.82h3.59V41.35C10.05,40.95,8.9,40.74,7.69,40.52z"/>
<path class="st0" d="M12.58,41.73l0.03,6.93h2.45C18.9,46.87,17.32,42.47,12.58,41.73z"/>
<polygon class="st0" points="19.18,45.41 16.45,53.3 21.47,53.3 20.6,50.24 22.12,50.24 23.08,53.34 26.92,53.3 24.04,43.61 
	20.11,43.06 21.87,49 20.26,49 "/>
<path class="st0" d="M27.91,43.86c1.27,0.12,2.57,0.19,3.9,0.22v3.65h1.73l0.03-3.68l3.34,0.06l0.06,9.16l-3.47,0.03v-4.33
	l-1.73,0.06l-0.03,4.27l-3.9-0.03L27.91,43.86z"/>
<path class="st0" d="M5,25.66l7.96-12.38c0.4-0.37,0.87-0.56,1.55-0.56l2.79,0.03c0.4,0,0.93,0.31,1.21,0.71L44.26,52
	c0.22,0.31,0.8,0.68,1.36,0.68h2.45c0.31,0,0.56-0.28,0.84-0.68l6.04-8.73l1.11-0.19l-6.59,9.41c-0.34,0.5-0.93,0.96-1.52,0.96H45.8
	c-0.9,0-1.67-0.28-2.11-0.93l-25.85-38.7c-0.19-0.31-0.71-0.34-1.11-0.31H15c-0.68,0-1.21,0.06-1.58,0.59L6.24,25.23L5,25.66z"/>
<path class="st0" d="M7.85,24.73l7.4-11.45c0.4-0.37,0.87-0.56,1.55-0.56h3.22c0.4,0,0.96,0.31,1.24,0.71L46.55,52
	c0.22,0.31,0.8,0.68,1.36,0.68h2.63c0.31,0,0.56-0.28,0.84-0.68l6.59-9.32l1.08-0.19l-7.09,10c-0.34,0.5-0.84,0.96-1.42,0.96h-2.45
	c-0.9,0-1.67-0.28-2.11-0.93l-25.48-38.7c-0.19-0.31-0.71-0.34-1.11-0.34h-2.14c-0.68,0-1.21,0.06-1.58,0.59L9.02,24.39L7.85,24.73z
	"/>
<path class="st0" d="M10.79,23.96l6.81-10.65c0.4-0.37,0.87-0.56,1.55-0.56l3.65-0.03c0.4,0,0.96,0.34,1.24,0.74L48.9,52.04
	c0.22,0.31,0.8,0.68,1.36,0.68h2.63c0.31,0,0.56-0.31,0.84-0.68L61,42.07l1.15-0.25L54.29,52.5c-0.34,0.5-0.84,0.96-1.42,0.96h-2.45
	c-0.9,0-1.67-0.28-2.11-0.93l-24.95-38.7c-0.19-0.31-0.77-0.31-1.15-0.31h-2.6c-0.68,0-1.21,0.06-1.58,0.59l-6.1,9.57L10.79,23.96z"
	/>
<path class="st0" d="M13.61,23.31l6.69-10c0.4-0.37,0.87-0.56,1.55-0.56l3.44-0.03c0.4,0,0.96,0.34,1.24,0.74l24.86,38.57
	c0.22,0.31,0.8,0.68,1.36,0.68h2.63c0.31,0,0.56-0.28,0.84-0.68l7.62-10.71l1.24-0.37L56.79,52.5c-0.34,0.5-0.84,0.96-1.42,0.96
	h-2.45c-0.9,0-1.7-0.28-2.11-0.93l-24.98-38.7c-0.19-0.31-0.77-0.31-1.15-0.31h-2.38c-0.68,0-1.21,0.06-1.58,0.59l-6.01,9.01
	L13.61,23.31z"/>
<path class="st0" d="M16.36,22.84l6.13-9.54c0.4-0.37,0.87-0.56,1.55-0.56l3.65-0.03c0.4,0,0.96,0.34,1.24,0.74l24.86,38.57
	c0.22,0.31,0.8,0.68,1.36,0.68h2.63c0.31,0,0.56-0.28,0.84-0.68l8.08-11.64l1.3-0.46l-8.79,12.6c-0.34,0.5-0.84,0.96-1.42,0.96
	h-2.45c-0.9,0-1.7-0.28-2.11-0.93L28.25,13.83c-0.19-0.31-0.77-0.31-1.15-0.31h-2.6c-0.68,0-1.21,0.06-1.58,0.59l-5.51,8.54
	L16.36,22.84z"/>
<g>
	<path class="st1" d="M25.4,24.7l0.06,16.13c1.7,0.15,3.41,0.28,5.11,0.4l0.06-13.62l2.2-0.09l0.09,13.68
		c1.73,0.09,3.47,0.12,5.2,0.06l-0.06-17.12C33.76,23.89,29.61,24.08,25.4,24.7z"/>
</g>
<g>
	<path class="st1" d="M47.6,24.88l-0.03,13.93c-5.17-0.22-7.89-3.68-7.31-8.05C40.82,26.56,44.26,24.7,47.6,24.88z"/>
</g>
</svg>
