<svg width="271" height="68.81" xmlns="http://www.w3.org/2000/svg">
 <style type="text/css">.st0{fill:#FFFFFF;}</style>

 <g>
  <title>background</title>
  <rect fill="none" id="canvas_background" height="70.81" width="273" y="-1" x="-1"/>
 </g>
 <g>
  <title>Layer 1</title>
  <g id="svg_1">
   <path id="svg_2" d="m292.8,29.23l0,-15.62l8.87,0l0,1.36l-7.33,0l0,14.26l-1.54,0z" class="st0"/>
   <path id="svg_3" d="m303.82,29.23l0,-11.4l1.5,0l0,9.38l6.97,-9.4l1.34,0l0,11.42l-1.5,0l0,-9.23l-6.86,9.23l-1.45,0z" class="st0"/>
   <path id="svg_4" d="m322.76,29.45c-0.95,0 -1.81,-0.25 -2.56,-0.74c-0.76,-0.5 -1.35,-1.11 -1.79,-1.84l0,7.05l-1.5,0l0,-16.1l1.34,0l0,2.23c0.45,-0.71 1.06,-1.29 1.83,-1.74s1.58,-0.67 2.44,-0.67c0.79,0 1.52,0.16 2.18,0.49s1.23,0.77 1.72,1.32s0.86,1.18 1.13,1.89s0.41,1.44 0.41,2.2c0,1.06 -0.22,2.05 -0.65,2.94c-0.43,0.9 -1.04,1.62 -1.81,2.16c-0.79,0.54 -1.7,0.81 -2.74,0.81zm-0.42,-1.32c0.63,0 1.2,-0.13 1.69,-0.38c0.5,-0.25 0.93,-0.6 1.29,-1.04c0.36,-0.44 0.63,-0.93 0.83,-1.47c0.19,-0.55 0.29,-1.11 0.29,-1.69c0,-0.61 -0.11,-1.19 -0.32,-1.75c-0.21,-0.55 -0.52,-1.04 -0.91,-1.46c-0.4,-0.42 -0.85,-0.76 -1.36,-1s-1.07,-0.37 -1.67,-0.37c-0.38,0 -0.78,0.07 -1.19,0.22c-0.41,0.15 -0.8,0.35 -1.18,0.62c-0.37,0.27 -0.69,0.57 -0.93,0.91c-0.25,0.33 -0.4,0.69 -0.46,1.07l0,3.5c0.23,0.54 0.55,1.02 0.95,1.45c0.4,0.43 0.85,0.77 1.38,1.03c0.5,0.24 1.04,0.36 1.59,0.36z" class="st0"/>
   <path id="svg_5" d="m335.37,29.45c-0.82,0 -1.58,-0.16 -2.28,-0.47c-0.7,-0.31 -1.3,-0.74 -1.8,-1.29s-0.9,-1.17 -1.18,-1.88c-0.28,-0.71 -0.42,-1.45 -0.42,-2.24c0,-0.82 0.14,-1.58 0.42,-2.29c0.28,-0.71 0.67,-1.33 1.19,-1.88s1.12,-0.98 1.82,-1.29c0.7,-0.31 1.46,-0.47 2.28,-0.47c0.82,0 1.58,0.16 2.27,0.47s1.29,0.74 1.8,1.29s0.91,1.17 1.19,1.88c0.28,0.71 0.42,1.47 0.42,2.29c0,0.79 -0.14,1.53 -0.42,2.24c-0.28,0.71 -0.67,1.33 -1.18,1.88c-0.51,0.55 -1.11,0.98 -1.8,1.29s-1.48,0.47 -2.31,0.47zm-4.16,-5.86c0,0.85 0.19,1.61 0.56,2.3s0.88,1.24 1.51,1.64c0.63,0.4 1.33,0.6 2.09,0.6s1.46,-0.2 2.09,-0.61s1.14,-0.96 1.52,-1.67c0.38,-0.71 0.57,-1.47 0.57,-2.3c0,-0.84 -0.19,-1.62 -0.57,-2.31c-0.38,-0.7 -0.89,-1.25 -1.52,-1.66s-1.33,-0.61 -2.09,-0.61s-1.46,0.21 -2.08,0.63c-0.62,0.42 -1.13,0.98 -1.51,1.67c-0.38,0.69 -0.57,1.46 -0.57,2.32z" class="st0"/>
   <path id="svg_6" d="m346.43,29.23l0,-10.07l-4.09,0l0,-1.34l9.68,0l0,1.34l-4.09,0l0,10.08l-1.5,0l0,-0.01z" class="st0"/>
   <path id="svg_7" d="m359.92,29.45c-0.95,0 -1.81,-0.25 -2.56,-0.74c-0.76,-0.5 -1.35,-1.11 -1.79,-1.84l0,7.05l-1.5,0l0,-16.1l1.34,0l0,2.23c0.45,-0.71 1.06,-1.29 1.83,-1.74s1.58,-0.67 2.44,-0.67c0.79,0 1.52,0.16 2.18,0.49s1.23,0.77 1.72,1.32s0.86,1.18 1.13,1.89s0.41,1.44 0.41,2.2c0,1.06 -0.22,2.05 -0.65,2.94c-0.43,0.9 -1.04,1.62 -1.81,2.16c-0.79,0.54 -1.7,0.81 -2.74,0.81zm-0.42,-1.32c0.63,0 1.2,-0.13 1.69,-0.38c0.5,-0.25 0.93,-0.6 1.29,-1.04c0.36,-0.44 0.63,-0.93 0.83,-1.47c0.19,-0.55 0.29,-1.11 0.29,-1.69c0,-0.61 -0.11,-1.19 -0.32,-1.75c-0.21,-0.55 -0.52,-1.04 -0.91,-1.46c-0.4,-0.42 -0.85,-0.76 -1.36,-1s-1.07,-0.37 -1.67,-0.37c-0.38,0 -0.78,0.07 -1.19,0.22c-0.41,0.15 -0.8,0.35 -1.18,0.62c-0.37,0.27 -0.69,0.57 -0.93,0.91c-0.25,0.33 -0.4,0.69 -0.46,1.07l0,3.5c0.23,0.54 0.55,1.02 0.95,1.45c0.4,0.43 0.85,0.77 1.38,1.03c0.49,0.24 1.03,0.36 1.59,0.36z" class="st0"/>
   <path id="svg_8" d="m372.53,29.45c-0.82,0 -1.58,-0.16 -2.28,-0.47c-0.7,-0.31 -1.3,-0.74 -1.8,-1.29s-0.9,-1.17 -1.18,-1.88c-0.28,-0.71 -0.42,-1.45 -0.42,-2.24c0,-0.82 0.14,-1.58 0.42,-2.29c0.28,-0.71 0.67,-1.33 1.19,-1.88s1.12,-0.98 1.82,-1.29c0.7,-0.31 1.46,-0.47 2.28,-0.47c0.82,0 1.58,0.16 2.27,0.47s1.29,0.74 1.8,1.29s0.91,1.17 1.19,1.88c0.28,0.71 0.42,1.47 0.42,2.29c0,0.79 -0.14,1.53 -0.42,2.24c-0.28,0.71 -0.67,1.33 -1.18,1.88c-0.51,0.55 -1.11,0.98 -1.8,1.29s-1.48,0.47 -2.31,0.47zm-4.16,-5.86c0,0.85 0.19,1.61 0.56,2.3s0.88,1.24 1.51,1.64c0.63,0.4 1.33,0.6 2.09,0.6s1.46,-0.2 2.09,-0.61s1.14,-0.96 1.52,-1.67c0.38,-0.71 0.57,-1.47 0.57,-2.3c0,-0.84 -0.19,-1.62 -0.57,-2.31c-0.38,-0.7 -0.89,-1.25 -1.52,-1.66s-1.33,-0.61 -2.09,-0.61s-1.46,0.21 -2.08,0.63c-0.62,0.42 -1.13,0.98 -1.51,1.67c-0.38,0.69 -0.57,1.46 -0.57,2.32z" class="st0"/>
   <path id="svg_9" d="m380.71,29.23l0,-11.41l1.5,0l0,4.91l6.56,0l0,-4.91l1.5,0l0,11.42l-1.5,0l0,-5.17l-6.56,0l0,5.17l-1.5,0l0,-0.01z" class="st0"/>
   <path id="svg_10" d="m393.53,29.23l0,-11.41l1.5,0l0,4.91l6.56,0l0,-4.91l1.5,0l0,11.42l-1.5,0l0,-5.17l-6.56,0l0,5.17l-1.5,0l0,-0.01z" class="st0"/>
   <path id="svg_11" d="m406.36,29.23l0,-11.41l1.5,0l0,4.03l2.6,0c1.3,0 2.29,0.33 2.96,1c0.67,0.67 1,1.54 1,2.62c0,0.7 -0.15,1.34 -0.44,1.91c-0.29,0.57 -0.72,1.02 -1.29,1.36c-0.56,0.34 -1.27,0.5 -2.12,0.5l-4.21,0l0,-0.01zm1.5,-1.18l2.51,0c0.6,0 1.09,-0.12 1.45,-0.36c0.37,-0.24 0.64,-0.55 0.81,-0.94s0.26,-0.81 0.26,-1.26c0,-0.44 -0.08,-0.84 -0.23,-1.22c-0.15,-0.37 -0.42,-0.67 -0.79,-0.9s-0.89,-0.34 -1.55,-0.34l-2.46,0l0,5.02zm8.64,1.18l0,-11.4l1.5,0l0,11.4l-1.5,0z" class="st0"/>
   <path id="svg_12" d="m426.25,29.45c-0.82,0 -1.58,-0.16 -2.29,-0.47c-0.7,-0.31 -1.31,-0.75 -1.83,-1.29c-0.51,-0.55 -0.91,-1.18 -1.2,-1.9c-0.29,-0.72 -0.43,-1.48 -0.43,-2.3c0,-1.06 0.25,-2.04 0.74,-2.93c0.49,-0.89 1.17,-1.6 2.03,-2.13s1.85,-0.8 2.95,-0.8c1.13,0 2.12,0.27 2.96,0.81s1.51,1.25 1.99,2.13s0.73,1.85 0.73,2.9c0,0.12 0,0.23 0,0.34s-0.01,0.19 -0.02,0.25l-9.81,0c0.07,0.82 0.3,1.54 0.69,2.18c0.39,0.63 0.89,1.14 1.52,1.51c0.62,0.37 1.3,0.56 2.04,0.56c0.75,0 1.46,-0.19 2.12,-0.57c0.67,-0.38 1.13,-0.88 1.4,-1.5l1.3,0.35c-0.24,0.54 -0.59,1.03 -1.08,1.47s-1.05,0.78 -1.71,1.02c-0.65,0.25 -1.35,0.37 -2.1,0.37zm-4.23,-6.46l8.47,0c-0.06,-0.83 -0.28,-1.55 -0.67,-2.18c-0.39,-0.62 -0.89,-1.11 -1.52,-1.47c-0.62,-0.36 -1.31,-0.53 -2.06,-0.53s-1.43,0.18 -2.05,0.53c-0.62,0.36 -1.12,0.85 -1.51,1.48c-0.37,0.63 -0.6,1.35 -0.66,2.17z" class="st0"/>
   <path id="svg_13" d="m439.8,29.23l0,-11.41l1.5,0l0,4.88l1.72,0l3.85,-4.88l1.72,0l-4.38,5.54l4.93,5.87l-1.76,0l-4.36,-5.15l-1.72,0l0,5.15l-1.5,0z" class="st0"/>
   <path id="svg_14" d="m455.55,29.45c-0.82,0 -1.58,-0.16 -2.28,-0.47c-0.7,-0.31 -1.3,-0.74 -1.8,-1.29s-0.9,-1.17 -1.18,-1.88c-0.28,-0.71 -0.42,-1.45 -0.42,-2.24c0,-0.82 0.14,-1.58 0.42,-2.29c0.28,-0.71 0.67,-1.33 1.19,-1.88s1.12,-0.98 1.82,-1.29c0.7,-0.31 1.46,-0.47 2.28,-0.47c0.82,0 1.58,0.16 2.27,0.47s1.29,0.74 1.8,1.29s0.91,1.17 1.19,1.88c0.28,0.71 0.42,1.47 0.42,2.29c0,0.79 -0.14,1.53 -0.42,2.24c-0.28,0.71 -0.67,1.33 -1.18,1.88c-0.51,0.55 -1.11,0.98 -1.8,1.29s-1.47,0.47 -2.31,0.47zm-4.16,-5.86c0,0.85 0.19,1.61 0.56,2.3s0.88,1.24 1.51,1.64c0.63,0.4 1.33,0.6 2.09,0.6s1.46,-0.2 2.09,-0.61s1.14,-0.96 1.52,-1.67c0.38,-0.71 0.57,-1.47 0.57,-2.3c0,-0.84 -0.19,-1.62 -0.57,-2.31c-0.38,-0.7 -0.89,-1.25 -1.52,-1.66s-1.33,-0.61 -2.09,-0.61s-1.46,0.21 -2.08,0.63c-0.62,0.42 -1.13,0.98 -1.51,1.67c-0.38,0.69 -0.57,1.46 -0.57,2.32z" class="st0"/>
   <path id="svg_15" d="m463.74,29.23l0,-11.41l1.54,0l4.55,7.87l4.58,-7.87l1.47,0l0,11.42l-1.43,0l0,-9.18l-4.14,7.14l-0.97,0l-4.18,-7.14l0,9.18l-1.42,0l0,-0.01z" class="st0"/>
   <path id="svg_16" d="m479.16,29.23l0,-11.41l9.22,0l0,11.42l-1.5,0l0,-10.08l-6.23,0l0,10.08l-1.49,0l0,-0.01z" class="st0"/>
   <path id="svg_17" d="m490.57,29.23l0,-1.36c0.4,0 0.75,-0.11 1.06,-0.32c0.31,-0.21 0.58,-0.57 0.83,-1.08c0.24,-0.51 0.44,-1.21 0.58,-2.1c0.15,-0.89 0.24,-2.03 0.29,-3.41l0.13,-3.16l7.44,0l0,11.35l-1.5,0l0,-9.99l-4.62,0l-0.04,1.96c-0.06,1.57 -0.18,2.88 -0.37,3.93c-0.19,1.05 -0.46,1.88 -0.8,2.49s-0.77,1.04 -1.26,1.31s-1.09,0.38 -1.74,0.38z" class="st0"/>
   <path id="svg_18" d="m509.14,29.45c-0.82,0 -1.58,-0.16 -2.29,-0.47c-0.7,-0.31 -1.31,-0.75 -1.83,-1.29c-0.51,-0.55 -0.91,-1.18 -1.2,-1.9c-0.29,-0.72 -0.43,-1.48 -0.43,-2.3c0,-1.06 0.25,-2.04 0.74,-2.93c0.49,-0.89 1.17,-1.6 2.04,-2.13s1.85,-0.8 2.95,-0.8c1.13,0 2.12,0.27 2.96,0.81c0.84,0.54 1.51,1.25 1.99,2.13c0.48,0.88 0.73,1.85 0.73,2.9c0,0.12 0,0.23 0,0.34s-0.01,0.19 -0.02,0.25l-9.81,0c0.07,0.82 0.3,1.54 0.69,2.18c0.39,0.63 0.89,1.14 1.52,1.51c0.62,0.37 1.3,0.56 2.04,0.56c0.75,0 1.46,-0.19 2.12,-0.57c0.67,-0.38 1.13,-0.88 1.4,-1.5l1.3,0.35c-0.23,0.54 -0.59,1.03 -1.08,1.47c-0.48,0.44 -1.05,0.78 -1.7,1.02c-0.67,0.25 -1.37,0.37 -2.12,0.37zm-4.22,-6.46l8.47,0c-0.06,-0.83 -0.28,-1.55 -0.67,-2.18c-0.39,-0.62 -0.89,-1.11 -1.52,-1.47c-0.62,-0.36 -1.31,-0.53 -2.06,-0.53s-1.43,0.18 -2.05,0.53s-1.12,0.85 -1.51,1.48c-0.38,0.63 -0.6,1.35 -0.66,2.17z" class="st0"/>
   <path id="svg_19" d="m517.08,29.23l0,-11.41l1.5,0l0,4.88l1.72,0l3.85,-4.88l1.72,0l-4.38,5.54l4.93,5.87l-1.76,0l-4.36,-5.15l-1.72,0l0,5.15l-1.5,0z" class="st0"/>
   <path id="svg_20" d="m532.92,29.45c-0.84,0 -1.6,-0.16 -2.3,-0.47c-0.7,-0.31 -1.31,-0.75 -1.83,-1.3c-0.52,-0.55 -0.92,-1.19 -1.21,-1.9c-0.29,-0.71 -0.43,-1.47 -0.43,-2.27c0,-1.08 0.24,-2.06 0.73,-2.95c0.48,-0.89 1.16,-1.6 2.02,-2.12c0.87,-0.52 1.86,-0.79 2.99,-0.79c1.07,0 2.02,0.25 2.84,0.74c0.82,0.49 1.43,1.15 1.83,1.99l-1.45,0.46c-0.32,-0.59 -0.77,-1.05 -1.35,-1.38c-0.58,-0.33 -1.22,-0.5 -1.92,-0.5c-0.76,0 -1.46,0.2 -2.09,0.59s-1.13,0.93 -1.51,1.62s-0.56,1.46 -0.56,2.34c0,0.86 0.19,1.64 0.57,2.34c0.38,0.7 0.89,1.26 1.52,1.67c0.63,0.42 1.33,0.62 2.09,0.62c0.5,0 0.98,-0.09 1.44,-0.26c0.46,-0.18 0.87,-0.41 1.21,-0.72c0.34,-0.3 0.58,-0.63 0.69,-0.98l1.47,0.44c-0.21,0.54 -0.55,1.03 -1.02,1.46s-1.03,0.77 -1.67,1.01c-0.64,0.24 -1.32,0.36 -2.06,0.36z" class="st0"/>
   <path id="svg_21" d="m540.01,29.23l0,-11.41l1.5,0l0,4.03l2.6,0c1.31,0 2.29,0.33 2.96,1c0.67,0.67 1,1.54 1,2.62c0,0.7 -0.15,1.34 -0.44,1.91c-0.29,0.57 -0.72,1.02 -1.29,1.36c-0.57,0.34 -1.27,0.5 -2.12,0.5l-4.21,0l0,-0.01zm1.49,-1.18l2.51,0c0.6,0 1.08,-0.12 1.45,-0.36c0.37,-0.24 0.64,-0.55 0.81,-0.94c0.18,-0.39 0.26,-0.81 0.26,-1.26c0,-0.44 -0.08,-0.84 -0.23,-1.22s-0.42,-0.67 -0.79,-0.9s-0.89,-0.34 -1.55,-0.34l-2.46,0l0,5.02zm8.65,1.18l0,-11.4l1.5,0l0,11.4l-1.5,0z" class="st0"/>
   <path id="svg_22" d="m560.34,23.93l0,-1.39l6.42,0l0,1.39l-6.42,0z" class="st0"/>
   <path id="svg_23" d="m297.79,55.85c-0.95,0 -1.81,-0.25 -2.56,-0.74c-0.76,-0.5 -1.35,-1.11 -1.79,-1.84l0,7.05l-1.5,0l0,-16.1l1.34,0l0,2.23c0.45,-0.71 1.06,-1.29 1.83,-1.74s1.58,-0.67 2.44,-0.67c0.79,0 1.52,0.16 2.18,0.49s1.23,0.77 1.72,1.32c0.48,0.55 0.86,1.18 1.13,1.89c0.27,0.71 0.41,1.44 0.41,2.2c0,1.07 -0.22,2.05 -0.65,2.94c-0.43,0.9 -1.04,1.62 -1.81,2.16s-1.7,0.81 -2.74,0.81zm-0.42,-1.32c0.63,0 1.2,-0.13 1.69,-0.38c0.5,-0.25 0.93,-0.6 1.29,-1.04c0.36,-0.44 0.63,-0.93 0.83,-1.47c0.19,-0.55 0.29,-1.11 0.29,-1.69c0,-0.61 -0.11,-1.19 -0.32,-1.75c-0.21,-0.55 -0.52,-1.04 -0.91,-1.46c-0.4,-0.42 -0.85,-0.76 -1.36,-1c-0.51,-0.25 -1.07,-0.37 -1.67,-0.37c-0.38,0 -0.78,0.07 -1.19,0.22c-0.41,0.15 -0.8,0.35 -1.18,0.62c-0.37,0.27 -0.69,0.57 -0.93,0.91c-0.25,0.33 -0.4,0.69 -0.46,1.07l0,3.5c0.23,0.54 0.55,1.02 0.95,1.45c0.4,0.43 0.85,0.77 1.38,1.03c0.5,0.24 1.04,0.36 1.59,0.36z" class="st0"/>
   <path id="svg_24" d="m304.59,52.35c0,-0.71 0.21,-1.33 0.62,-1.85c0.41,-0.52 0.98,-0.92 1.71,-1.2c0.73,-0.28 1.57,-0.43 2.52,-0.43c0.56,0 1.14,0.04 1.74,0.13s1.14,0.22 1.61,0.4l0,-0.96c0,-0.96 -0.29,-1.73 -0.86,-2.3s-1.36,-0.85 -2.38,-0.85c-0.62,0 -1.22,0.11 -1.82,0.34c-0.59,0.23 -1.21,0.56 -1.86,1l-0.57,-1.06c0.75,-0.51 1.48,-0.9 2.2,-1.15c0.72,-0.26 1.45,-0.39 2.2,-0.39c1.41,0 2.52,0.4 3.34,1.2s1.23,1.91 1.23,3.32l0,5.27c0,0.2 0.04,0.35 0.13,0.45c0.09,0.09 0.23,0.15 0.42,0.16l0,1.19c-0.16,0.01 -0.3,0.03 -0.42,0.04c-0.12,0.01 -0.21,0.01 -0.26,0c-0.37,-0.01 -0.65,-0.13 -0.84,-0.35c-0.19,-0.22 -0.29,-0.45 -0.31,-0.7l-0.02,-0.84c-0.51,0.66 -1.18,1.17 -2,1.53s-1.66,0.54 -2.51,0.54c-0.73,0 -1.4,-0.16 -1.99,-0.47c-0.59,-0.31 -1.06,-0.74 -1.39,-1.27c-0.33,-0.52 -0.49,-1.1 -0.49,-1.75zm7.68,0.88c0.16,-0.2 0.29,-0.4 0.37,-0.59c0.09,-0.19 0.13,-0.36 0.13,-0.5l0,-1.66c-0.5,-0.19 -1.02,-0.33 -1.55,-0.44s-1.07,-0.15 -1.62,-0.15c-1.07,0 -1.94,0.21 -2.6,0.63c-0.66,0.42 -0.99,1 -0.99,1.72c0,0.42 0.11,0.82 0.33,1.19c0.22,0.37 0.54,0.68 0.97,0.92c0.42,0.24 0.92,0.36 1.5,0.36c0.72,0 1.39,-0.14 2.01,-0.42c0.63,-0.27 1.11,-0.63 1.45,-1.06z" class="st0"/>
   <path id="svg_25" d="m320.83,55.85c-1.06,0 -1.96,-0.2 -2.71,-0.6c-0.75,-0.4 -1.32,-0.97 -1.72,-1.71l1.23,-0.55c0.28,0.51 0.68,0.91 1.21,1.2s1.17,0.43 1.91,0.43c0.89,0 1.61,-0.21 2.14,-0.62c0.54,-0.41 0.8,-0.97 0.8,-1.66c0,-0.63 -0.21,-1.14 -0.64,-1.53c-0.42,-0.38 -1.01,-0.58 -1.76,-0.6l-1.17,0l0,-1.03l1.25,0c0.32,0 0.62,-0.09 0.88,-0.27c0.26,-0.18 0.47,-0.41 0.62,-0.71s0.22,-0.63 0.22,-1c0,-0.58 -0.2,-1.04 -0.6,-1.39c-0.4,-0.35 -0.99,-0.53 -1.77,-0.53c-0.65,0 -1.18,0.13 -1.62,0.38c-0.43,0.26 -0.78,0.63 -1.04,1.13l-1.14,-0.62c0.34,-0.67 0.84,-1.2 1.51,-1.58c0.67,-0.38 1.45,-0.57 2.34,-0.57c0.73,0 1.38,0.12 1.92,0.36s0.98,0.59 1.3,1.04s0.47,0.99 0.47,1.62c0,0.54 -0.13,1.05 -0.4,1.51c-0.26,0.46 -0.63,0.81 -1.1,1.05c0.67,0.21 1.2,0.57 1.57,1.08c0.37,0.52 0.56,1.12 0.56,1.81c0,0.69 -0.18,1.29 -0.55,1.79c-0.37,0.5 -0.87,0.88 -1.52,1.15s-1.36,0.42 -2.19,0.42z" class="st0"/>
   <path id="svg_26" d="m333.48,55.85c-0.95,0 -1.81,-0.25 -2.56,-0.74c-0.76,-0.5 -1.35,-1.11 -1.79,-1.84l0,7.05l-1.5,0l0,-16.1l1.34,0l0,2.23c0.45,-0.71 1.06,-1.29 1.83,-1.74s1.58,-0.67 2.44,-0.67c0.79,0 1.52,0.16 2.18,0.49s1.23,0.77 1.72,1.32c0.48,0.55 0.86,1.18 1.13,1.89c0.27,0.71 0.41,1.44 0.41,2.2c0,1.07 -0.22,2.05 -0.65,2.94c-0.43,0.9 -1.04,1.62 -1.81,2.16s-1.7,0.81 -2.74,0.81zm-0.42,-1.32c0.63,0 1.2,-0.13 1.69,-0.38c0.5,-0.25 0.93,-0.6 1.29,-1.04c0.36,-0.44 0.63,-0.93 0.83,-1.47c0.19,-0.55 0.29,-1.11 0.29,-1.69c0,-0.61 -0.11,-1.19 -0.32,-1.75c-0.21,-0.55 -0.52,-1.04 -0.91,-1.46c-0.4,-0.42 -0.85,-0.76 -1.36,-1c-0.51,-0.25 -1.07,-0.37 -1.67,-0.37c-0.38,0 -0.78,0.07 -1.19,0.22c-0.41,0.15 -0.8,0.35 -1.18,0.62c-0.37,0.27 -0.69,0.57 -0.93,0.91c-0.25,0.33 -0.4,0.69 -0.46,1.07l0,3.5c0.23,0.54 0.55,1.02 0.95,1.45c0.4,0.43 0.85,0.77 1.38,1.03c0.49,0.24 1.03,0.36 1.59,0.36z" class="st0"/>
   <path id="svg_27" d="m340.27,52.35c0,-0.71 0.21,-1.33 0.62,-1.85c0.41,-0.52 0.98,-0.92 1.71,-1.2c0.73,-0.28 1.57,-0.43 2.52,-0.43c0.56,0 1.14,0.04 1.74,0.13s1.14,0.22 1.61,0.4l0,-0.96c0,-0.96 -0.29,-1.73 -0.86,-2.3s-1.36,-0.85 -2.38,-0.85c-0.62,0 -1.22,0.11 -1.82,0.34c-0.59,0.23 -1.21,0.56 -1.86,1l-0.57,-1.06c0.75,-0.51 1.48,-0.9 2.2,-1.15c0.72,-0.26 1.45,-0.39 2.2,-0.39c1.41,0 2.52,0.4 3.34,1.2s1.23,1.91 1.23,3.32l0,5.27c0,0.2 0.04,0.35 0.13,0.45c0.09,0.09 0.23,0.15 0.42,0.16l0,1.19c-0.16,0.01 -0.3,0.03 -0.42,0.04c-0.12,0.01 -0.21,0.01 -0.26,0c-0.37,-0.01 -0.65,-0.13 -0.84,-0.35c-0.19,-0.22 -0.29,-0.45 -0.31,-0.7l-0.02,-0.84c-0.51,0.66 -1.18,1.17 -2,1.53s-1.66,0.54 -2.51,0.54c-0.73,0 -1.4,-0.16 -1.99,-0.47c-0.59,-0.31 -1.06,-0.74 -1.39,-1.27c-0.32,-0.52 -0.49,-1.1 -0.49,-1.75zm7.68,0.88c0.16,-0.2 0.29,-0.4 0.37,-0.59c0.09,-0.19 0.13,-0.36 0.13,-0.5l0,-1.66c-0.5,-0.19 -1.02,-0.33 -1.55,-0.44s-1.07,-0.15 -1.62,-0.15c-1.07,0 -1.94,0.21 -2.6,0.63c-0.66,0.42 -0.99,1 -0.99,1.72c0,0.42 0.11,0.82 0.33,1.19c0.22,0.37 0.54,0.68 0.97,0.92c0.42,0.24 0.92,0.36 1.5,0.36c0.72,0 1.39,-0.14 2.01,-0.42c0.63,-0.27 1.11,-0.63 1.45,-1.06z" class="st0"/>
   <path id="svg_28" d="m358.44,55.85c-1.85,0 -3.25,-0.56 -4.19,-1.69c-0.95,-1.13 -1.42,-2.69 -1.42,-4.68c0,-1.41 0.12,-2.6 0.35,-3.58c0.23,-0.97 0.58,-1.78 1.03,-2.41c0.45,-0.63 1.01,-1.15 1.68,-1.56c0.67,-0.41 1.43,-0.74 2.3,-1l4.82,-1.57l0.13,1.3l-4.64,1.5c-0.88,0.29 -1.61,0.66 -2.2,1.11c-0.59,0.45 -1.04,1.02 -1.38,1.71c-0.33,0.69 -0.55,1.6 -0.65,2.71c0.38,-0.85 0.97,-1.51 1.76,-1.97s1.71,-0.69 2.75,-0.69c1.12,0 2.06,0.23 2.85,0.68c0.78,0.45 1.38,1.08 1.79,1.88c0.41,0.8 0.62,1.72 0.62,2.77c0,1.11 -0.22,2.07 -0.65,2.89s-1.06,1.46 -1.89,1.92c-0.81,0.45 -1.84,0.68 -3.06,0.68zm0,-1.32c1.31,0 2.31,-0.37 3.03,-1.12c0.71,-0.75 1.07,-1.74 1.07,-2.99c0,-1.22 -0.35,-2.21 -1.04,-2.98c-0.7,-0.77 -1.71,-1.15 -3.05,-1.15c-0.76,0 -1.45,0.16 -2.07,0.48c-0.62,0.32 -1.1,0.78 -1.46,1.39c-0.36,0.61 -0.54,1.36 -0.54,2.26c0,0.78 0.16,1.49 0.47,2.11c0.31,0.62 0.77,1.11 1.38,1.47c0.59,0.35 1.34,0.53 2.21,0.53z" class="st0"/>
   <path id="svg_29" d="m371.45,55.85c-0.82,0 -1.58,-0.16 -2.28,-0.47c-0.7,-0.31 -1.3,-0.74 -1.8,-1.29s-0.9,-1.17 -1.18,-1.88c-0.28,-0.71 -0.42,-1.46 -0.42,-2.24c0,-0.82 0.14,-1.58 0.42,-2.29c0.28,-0.71 0.67,-1.33 1.19,-1.88c0.51,-0.55 1.12,-0.98 1.82,-1.29c0.7,-0.31 1.46,-0.47 2.28,-0.47c0.82,0 1.58,0.16 2.27,0.47s1.29,0.74 1.8,1.29c0.51,0.55 0.91,1.17 1.19,1.88c0.28,0.71 0.42,1.47 0.42,2.29c0,0.79 -0.14,1.53 -0.42,2.24c-0.28,0.71 -0.67,1.33 -1.18,1.88c-0.51,0.55 -1.11,0.98 -1.8,1.29s-1.48,0.47 -2.31,0.47zm-4.16,-5.86c0,0.84 0.19,1.61 0.56,2.3s0.88,1.24 1.51,1.64c0.63,0.4 1.33,0.6 2.09,0.6s1.46,-0.2 2.09,-0.61c0.63,-0.41 1.14,-0.96 1.52,-1.67c0.38,-0.71 0.57,-1.47 0.57,-2.3c0,-0.84 -0.19,-1.62 -0.57,-2.31c-0.38,-0.7 -0.89,-1.25 -1.52,-1.66c-0.63,-0.41 -1.33,-0.61 -2.09,-0.61s-1.46,0.21 -2.08,0.63s-1.13,0.98 -1.51,1.67c-0.38,0.68 -0.57,1.46 -0.57,2.32z" class="st0"/>
   <path id="svg_30" d="m382.51,55.63l0,-10.07l-4.09,0l0,-1.34l9.68,0l0,1.34l-4.09,0l0,10.08l-1.5,0l0,-0.01z" class="st0"/>
   <path id="svg_31" d="m390.12,55.63l0,-11.42l1.5,0l0,4.88l1.72,0l3.85,-4.88l1.72,0l-4.38,5.54l4.93,5.87l-1.76,0l-4.36,-5.15l-1.72,0l0,5.15l-1.5,0l0,0.01z" class="st0"/>
   <path id="svg_32" d="m400.62,52.35c0,-0.71 0.21,-1.33 0.62,-1.85c0.41,-0.52 0.98,-0.92 1.71,-1.2c0.73,-0.28 1.57,-0.43 2.52,-0.43c0.56,0 1.14,0.04 1.74,0.13s1.14,0.22 1.61,0.4l0,-0.96c0,-0.96 -0.29,-1.73 -0.86,-2.3s-1.36,-0.85 -2.38,-0.85c-0.62,0 -1.22,0.11 -1.82,0.34c-0.59,0.23 -1.21,0.56 -1.86,1l-0.57,-1.06c0.75,-0.51 1.48,-0.9 2.2,-1.15c0.72,-0.26 1.45,-0.39 2.2,-0.39c1.41,0 2.52,0.4 3.34,1.2s1.23,1.91 1.23,3.32l0,5.27c0,0.2 0.04,0.35 0.13,0.45c0.09,0.09 0.23,0.15 0.42,0.16l0,1.19c-0.16,0.01 -0.3,0.03 -0.42,0.04c-0.12,0.01 -0.21,0.01 -0.26,0c-0.37,-0.01 -0.65,-0.13 -0.84,-0.35c-0.19,-0.22 -0.29,-0.45 -0.31,-0.7l-0.02,-0.83c-0.51,0.66 -1.18,1.17 -2,1.53s-1.66,0.54 -2.51,0.54c-0.73,0 -1.4,-0.16 -1.99,-0.47c-0.59,-0.31 -1.06,-0.74 -1.39,-1.27c-0.33,-0.53 -0.49,-1.11 -0.49,-1.76zm7.68,0.88c0.16,-0.2 0.29,-0.4 0.37,-0.59c0.09,-0.19 0.13,-0.36 0.13,-0.5l0,-1.66c-0.5,-0.19 -1.02,-0.33 -1.55,-0.44s-1.07,-0.15 -1.62,-0.15c-1.07,0 -1.94,0.21 -2.6,0.63c-0.66,0.42 -0.99,1 -0.99,1.72c0,0.42 0.11,0.82 0.33,1.19c0.22,0.37 0.54,0.68 0.97,0.92c0.42,0.24 0.92,0.36 1.5,0.36c0.72,0 1.39,-0.14 2.01,-0.42c0.63,-0.27 1.11,-0.63 1.45,-1.06z" class="st0"/>
   <path id="svg_33" d="m419.12,55.63l0,-11.4l1.5,0l0,9.38l6.97,-9.4l1.34,0l0,11.42l-1.5,0l0,-9.23l-6.86,9.23l-1.45,0z" class="st0"/>
   <path id="svg_34" d="m437.8,55.63l0,-11.42l9.22,0l0,11.42l-1.5,0l0,-10.07l-6.23,0l0,10.08l-1.49,0l0,-0.01z" class="st0"/>
   <path id="svg_35" d="m456.17,55.85c-0.95,0 -1.81,-0.25 -2.56,-0.74c-0.75,-0.5 -1.35,-1.11 -1.79,-1.84l0,7.05l-1.5,0l0,-16.1l1.34,0l0,2.23c0.45,-0.71 1.06,-1.29 1.83,-1.74s1.58,-0.67 2.44,-0.67c0.79,0 1.52,0.16 2.18,0.49s1.23,0.77 1.72,1.32c0.48,0.55 0.86,1.18 1.13,1.89c0.27,0.71 0.41,1.44 0.41,2.2c0,1.07 -0.22,2.05 -0.65,2.94c-0.43,0.9 -1.04,1.62 -1.82,2.16s-1.69,0.81 -2.73,0.81zm-0.42,-1.32c0.63,0 1.2,-0.13 1.69,-0.38c0.5,-0.25 0.93,-0.6 1.29,-1.04c0.36,-0.44 0.63,-0.93 0.83,-1.47s0.29,-1.11 0.29,-1.69c0,-0.61 -0.11,-1.19 -0.32,-1.75s-0.52,-1.04 -0.91,-1.46c-0.4,-0.42 -0.85,-0.76 -1.36,-1c-0.51,-0.25 -1.07,-0.37 -1.67,-0.37c-0.38,0 -0.78,0.07 -1.19,0.22c-0.41,0.15 -0.8,0.35 -1.18,0.62c-0.37,0.27 -0.69,0.57 -0.94,0.91c-0.25,0.33 -0.4,0.69 -0.46,1.07l0,3.5c0.23,0.54 0.55,1.02 0.95,1.45c0.4,0.43 0.85,0.77 1.38,1.03c0.5,0.24 1.04,0.36 1.6,0.36z" class="st0"/>
   <path id="svg_36" d="m463.87,55.63l0,-11.4l1.5,0l0,9.38l6.97,-9.4l1.34,0l0,11.42l-1.5,0l0,-9.23l-6.86,9.23l-1.45,0z" class="st0"/>
   <path id="svg_37" d="m476.94,55.63l0,-11.42l1.54,0l4.55,7.87l4.58,-7.87l1.47,0l0,11.42l-1.43,0l0,-9.18l-4.14,7.14l-0.97,0l-4.18,-7.14l0,9.18l-1.42,0z" class="st0"/>
   <path id="svg_38" d="m497.33,55.85c-0.82,0 -1.58,-0.16 -2.29,-0.47c-0.7,-0.31 -1.31,-0.75 -1.83,-1.29c-0.51,-0.55 -0.91,-1.18 -1.2,-1.9s-0.43,-1.48 -0.43,-2.3c0,-1.06 0.25,-2.04 0.74,-2.93s1.17,-1.6 2.04,-2.13s1.85,-0.8 2.95,-0.8c1.13,0 2.12,0.27 2.96,0.81c0.84,0.54 1.51,1.25 1.99,2.13c0.48,0.88 0.73,1.85 0.73,2.9c0,0.12 0,0.23 0,0.34s-0.01,0.19 -0.02,0.25l-9.81,0c0.07,0.82 0.3,1.54 0.69,2.18s0.89,1.14 1.52,1.51c0.62,0.37 1.3,0.56 2.04,0.56c0.75,0 1.46,-0.19 2.12,-0.57c0.67,-0.38 1.13,-0.88 1.4,-1.5l1.3,0.35c-0.23,0.54 -0.59,1.03 -1.08,1.47c-0.48,0.44 -1.05,0.78 -1.7,1.02c-0.67,0.25 -1.37,0.37 -2.12,0.37zm-4.22,-6.47l8.47,0c-0.06,-0.83 -0.28,-1.55 -0.67,-2.18c-0.39,-0.63 -0.89,-1.11 -1.52,-1.47c-0.62,-0.36 -1.31,-0.53 -2.06,-0.53s-1.43,0.18 -2.05,0.53s-1.12,0.85 -1.51,1.48c-0.38,0.64 -0.61,1.36 -0.66,2.17z" class="st0"/>
   <path id="svg_39" d="m505.27,55.63l0,-11.42l1.5,0l0,4.91l6.56,0l0,-4.91l1.5,0l0,11.42l-1.5,0l0,-5.17l-6.56,0l0,5.17l-1.5,0z" class="st0"/>
   <path id="svg_40" d="m523.07,55.85c-0.82,0 -1.58,-0.16 -2.29,-0.47c-0.7,-0.31 -1.31,-0.75 -1.83,-1.29c-0.51,-0.55 -0.91,-1.18 -1.2,-1.9s-0.43,-1.48 -0.43,-2.3c0,-1.06 0.25,-2.04 0.74,-2.93s1.17,-1.6 2.04,-2.13s1.85,-0.8 2.95,-0.8c1.13,0 2.12,0.27 2.96,0.81c0.84,0.54 1.51,1.25 1.99,2.13c0.48,0.88 0.73,1.85 0.73,2.9c0,0.12 0,0.23 0,0.34s-0.01,0.19 -0.02,0.25l-9.81,0c0.07,0.82 0.3,1.54 0.69,2.18s0.89,1.14 1.52,1.51c0.62,0.37 1.3,0.56 2.04,0.56c0.75,0 1.46,-0.19 2.12,-0.57c0.67,-0.38 1.13,-0.88 1.4,-1.5l1.3,0.35c-0.23,0.54 -0.59,1.03 -1.08,1.47c-0.48,0.44 -1.05,0.78 -1.7,1.02c-0.67,0.25 -1.37,0.37 -2.12,0.37zm-4.23,-6.47l8.47,0c-0.06,-0.83 -0.28,-1.55 -0.67,-2.18c-0.39,-0.63 -0.89,-1.11 -1.52,-1.47c-0.62,-0.36 -1.31,-0.53 -2.06,-0.53s-1.43,0.18 -2.05,0.53s-1.12,0.85 -1.51,1.48c-0.37,0.64 -0.6,1.36 -0.66,2.17z" class="st0"/>
   <path id="svg_41" d="m531.01,55.63l0,-11.42l1.5,0l0,4.91l6.56,0l0,-4.91l1.5,0l0,11.42l-1.5,0l0,-5.17l-6.56,0l0,5.17l-1.5,0z" class="st0"/>
   <path id="svg_42" d="m543.84,55.63l0,-11.4l1.5,0l0,9.38l6.97,-9.4l1.34,0l0,11.42l-1.5,0l0,-9.23l-6.86,9.23l-1.45,0z" class="st0"/>
   <path id="svg_43" d="m561.88,55.85c-0.82,0 -1.58,-0.16 -2.29,-0.47c-0.7,-0.31 -1.31,-0.75 -1.83,-1.29c-0.51,-0.55 -0.91,-1.18 -1.2,-1.9s-0.43,-1.48 -0.43,-2.3c0,-1.06 0.25,-2.04 0.74,-2.93s1.17,-1.6 2.04,-2.13s1.85,-0.8 2.95,-0.8c1.13,0 2.12,0.27 2.96,0.81c0.84,0.54 1.51,1.25 1.99,2.13c0.48,0.88 0.73,1.85 0.73,2.9c0,0.12 0,0.23 0,0.34s-0.01,0.19 -0.02,0.25l-9.81,0c0.07,0.82 0.3,1.54 0.69,2.18s0.89,1.14 1.52,1.51c0.62,0.37 1.3,0.56 2.04,0.56c0.75,0 1.46,-0.19 2.12,-0.57c0.67,-0.38 1.13,-0.88 1.4,-1.5l1.3,0.35c-0.23,0.54 -0.59,1.03 -1.08,1.47c-0.48,0.44 -1.05,0.78 -1.7,1.02c-0.68,0.25 -1.38,0.37 -2.12,0.37zm-4.23,-6.47l8.47,0c-0.06,-0.83 -0.28,-1.55 -0.67,-2.18c-0.39,-0.63 -0.89,-1.11 -1.52,-1.47c-0.62,-0.36 -1.31,-0.53 -2.06,-0.53s-1.43,0.18 -2.05,0.53s-1.12,0.85 -1.51,1.48c-0.38,0.64 -0.6,1.36 -0.66,2.17z" class="st0"/>
  </g>
  <g id="svg_44">
   <path id="svg_45" d="m109.9,17.2l-13.09,0c-1.1,0 -2.18,0.36 -3.06,1.02l-3.18,2.06c-1.78,1.15 -2.85,3.13 -2.85,5.25l0,29.47l8.22,0l0,-27.1c0,-1.82 1.48,-3.3 3.3,-3.3l10.67,0l0,-7.4l-0.01,0z" class="st0"/>
   <path id="svg_46" d="m115.65,17.2l8.22,0l0,22.71c0,0.51 -0.24,0.75 0,0.3l12.55,-21.89c0.37,-0.69 1.09,-1.12 1.87,-1.12l3.18,0c1.62,0 2.94,1.32 2.94,2.94l0,34.86l-8.22,0l0,-21.41c0,-0.62 0.28,-0.51 0,0.04l-11.38,19.53c-0.58,1.13 -1.75,1.84 -3.02,1.84l-2.67,0c-1.92,0 -3.48,-1.56 -3.48,-3.48l0,-34.32l0.01,0z" class="st0"/>
   <path id="svg_47" d="m152.63,17.2l8.22,0l0,14.79l2.39,0c0.56,0 1.09,-0.28 1.4,-0.75l0,0c2.91,-4.36 4.7,-8.55 5.23,-13.77l0.03,-0.27l8.22,0l-0.22,1.23c-0.93,5.13 -1.51,9.45 -4.71,13.56l-1.64,1.64l4.11,3.29c1.64,1.64 2.19,2.93 2.39,5.1c0.08,0.88 0.08,1.69 0.08,2.29l0,10.69l-8.22,0l0,-13.17c0,-1.02 -0.51,-1.96 -1.35,-2.53l-0.23,-0.15c-0.58,-0.38 -1.25,-0.59 -1.95,-0.59l-5.51,0l0,16.44l-8.22,0l0,-37.8l-0.02,0z" class="st0"/>
   <path id="svg_48" d="m203.16,17.2c-10.66,0 -19.31,8.65 -19.31,19.31s8.65,19.31 19.31,19.31c10.66,0 19.31,-8.65 19.31,-19.31s-8.64,-19.31 -19.31,-19.31zm-0.31,31.03c-6.75,0 -11.41,-4.65 -11.41,-11.41s4.65,-11.41 11.41,-11.41c6.75,0 11.41,4.65 11.41,11.41s-4.66,11.41 -11.41,11.41z" class="st0"/>
   <path id="svg_49" d="m226.17,55l9.04,0l2.47,-26.3l6.98,23.01c0.82,4.93 5.75,4.93 6.57,0l6.54,-23.03l2.91,26.32l9.04,0l-5.34,-33.69c-2.47,-6.57 -9.04,-6.57 -11.09,0l-5.34,18.08l-5.34,-17.26c-2.47,-7.4 -9.86,-7.4 -11.5,0l-4.94,32.87z" class="st0"/>
  </g>
  <g id="svg_50">
   <rect id="svg_51" height="5.54" width="33.11" class="st0" y="31.49" x="34.67"/>
   <path id="svg_52" d="m62.46,31.57c0.09,0.93 0.14,1.88 0.14,2.84c0,15.57 -12.62,28.19 -28.19,28.19s-28.2,-12.62 -28.2,-28.2s12.62,-28.19 28.2,-28.19c13.35,0 24.53,9.28 27.45,21.73l6.35,0c-3.03,-15.91 -17.01,-27.94 -33.8,-27.94c-19.01,0 -34.41,15.4 -34.41,34.4s15.4,34.41 34.41,34.41s34.4,-15.4 34.4,-34.41c0,-0.96 -0.04,-1.9 -0.12,-2.84l-6.23,0l0,0.01z" class="st0"/>
   <path id="svg_53" d="m49.37,40.86c-2.5,5.79 -8.26,9.83 -14.96,9.83c-9,0 -16.29,-7.29 -16.29,-16.29s7.29,-16.29 16.29,-16.29c6.67,0 12.4,4.01 14.93,9.75l6.08,0c-2.79,-8.95 -11.14,-15.45 -21.01,-15.45c-12.15,0 -22,9.85 -22,22s9.85,22 22,22c9.9,0 18.27,-6.54 21.03,-15.54l-6.07,0l0,-0.01z" class="st0"/>
  </g>
 </g>
</svg>